# xmcd CD database file generated by Grip 3.3.1
# 
# Track frame offsets:
#       150
#       10993
#       22096
#       34513
#       45565
#       57327
#       69111
#       82402
#       93966
#       105781
#       117563
#       129050
#       140566
#       152836
#       163620
#       176529
#       188521
#       198872
#       212281
#       223006
#       236085
#       246414
#       257422
#       270139
#       281237
#       293326
#       305844
#       319404
#       329764
#       340058
# 
# Disc length: 4681 seconds
# 
# Revision: 2
# Processed by: cddbd v1.5.2PL0 Copyright (c) Steve Scherf et al.
# Submitted via: Grip 3.3.1
# 
DISCID=ab12471e
DTITLE=Various Artist - Ham Hocks And Cornbread - Disc 4
DYEAR=2005
DGENRE=Blues
TTITLE0=Jimmy Rushing - Hi-Ho Sylvester
TTITLE1=Stomp Gordon - Damp Rag
TTITLE2=Crown Prince Waterford - Time To Blow
TTITLE3=Grant "Mr. Blues" Jones - For You My Love
TTITLE4=Maxwell Davis - Royal Boogie
TTITLE5=Little Maxie - My Baby's Blues
TTITLE6=Hal Singer - Rock Around The Clock
TTITLE7=B.B. King - Take A Swing With Me
TTITLE8=James Von Streeter - Chit'lins
TTITLE9=Bernie Hardison - Love Me Baby
TTITLE10=Tommy Douglas - Douglas Boogie
TTITLE11=Tommy Ridgley - Come Home Baby
TTITLE12=Rudy Greene - Buzzard Pie
TTITLE13=Charlie Singleton - Blow Mr. Singleton
TTITLE14=Lloyd "Fat Man" Smith - Giddy-Up Giddy-Up
TTITLE15=J.T. Brown - Walkin' Home
TTITLE16=Little Richard - Get Rich Quick
TTITLE17=Freddie Mitchell - Fish Market Boogie
TTITLE18=Tucker Coles - House Rockers Jamboree
TTITLE19=Robert Tucker - It Sure Costs Money To Live
TTITLE20=Earl Jackson - Jackson's Blues
TTITLE21=Elmore Nixon - Forgive Me Baby
TTITLE22=Little Willie Jackson - Jackson's Boogie
TTITLE23=Herman Manzy - I'm Your Rockin' Man
TTITLE24=Plas Johnson - Worrying Blues
TTITLE25=Hubert Robinson - High Class Woman
TTITLE26=Jimmy Forrest - Night Train
TTITLE27=Lester Williams - I Can't Lose With The Stuff I Use
TTITLE28=Goree Carter - I'll Send You
TTITLE29=Joe Houston - Cornbread And Cabbage Greens
EXTD=
EXTT0=
EXTT1=
EXTT2=
EXTT3=
EXTT4=
EXTT5=
EXTT6=
EXTT7=
EXTT8=
EXTT9=
EXTT10=
EXTT11=
EXTT12=
EXTT13=
EXTT14=
EXTT15=
EXTT16=
EXTT17=
EXTT18=
EXTT19=
EXTT20=
EXTT21=
EXTT22=
EXTT23=
EXTT24=
EXTT25=
EXTT26=
EXTT27=
EXTT28=
EXTT29=
PLAYORDER=
